Coordinates
version=1
nRows=6
nColumns=63
inDegrees=yes

Units are S.I. units (second, meters, Newtons, ...)
If the header above contains a line with 'inDegrees', this indicates whether rotational values are in degrees (yes) or radians (no).

endheader
time	pelvis_tilt	pelvis_list	pelvis_rotation	pelvis_tx	pelvis_ty	pelvis_tz	hip_flexion_r	hip_adduction_r	hip_rotation_r	knee_angle_r	knee_angle_r_beta	ankle_angle_r	subtalar_angle_r	mtp_angle_r	hip_flexion_l	hip_adduction_l	hip_rotation_l	knee_angle_l	knee_angle_l_beta	ankle_angle_l	subtalar_angle_l	mtp_angle_l	L5_S1_Flex_Ext	L5_S1_Lat_Bending	L5_S1_axial_rotation	L4_L5_Flex_Ext	L4_L5_Lat_Bending	L4_L5_axial_rotation	L3_L4_Flex_Ext	L3_L4_Lat_Bending	L3_L4_axial_rotation	L2_L3_Flex_Ext	L2_L3_Lat_Bending	L2_L3_axial_rotation	L1_L2_Flex_Ext	L1_L2_Lat_Bending	L1_L2_axial_rotation	L1_T12_Flex_Ext	L1_T12_Lat_Bending	L1_T12_axial_rotation	Abs_r3	Abs_r2	Abs_r1	Abs_t1	Abs_t2	neck_flexion	neck_bending	neck_rotation	arm_flex_r	arm_add_r	arm_rot_r	elbow_flex_r	pro_sup_r	wrist_flex_r	wrist_dev_r	arm_flex_l	arm_add_l	arm_rot_l	elbow_flex_l	pro_sup_l	wrist_flex_l	wrist_dev_l
0.000000	5.135072	-5.583365	81.187001	0.329573	1.041744	0.362762	0.104390	-0.555003	4.121560	7.185694	0.125414	33.182468	5.394711	0.000000	-3.102685	0.145737	3.540882	1.780490	0.031075	29.502784	-16.407686	0.000000	0.096673	0.275834	1.589112	0.179531	0.366860	1.688431	0.158823	0.670664	1.688431	0.110487	0.670664	1.390473	0.089770	0.562481	1.291153	0.055239	0.427267	1.191834	0.690522	3.120293	8.838163	0.000000	0.000000	28.031745	-2.619029	-3.544775	17.744130	-2.479134	88.225598	33.375361	75.820556	-7.573299	-0.719264	15.473913	-4.043534	77.439869	29.097164	48.797298	-4.158085	-9.232420
0.016667	5.019354	-5.756341	82.121080	0.328079	1.040835	0.363718	0.205857	-0.822638	2.386142	7.225064	0.126101	33.718084	6.774579	0.000000	-2.553179	0.230804	3.940544	2.157691	0.037659	29.881270	-16.265611	0.000000	0.108925	0.269931	1.425888	0.202284	0.359008	1.515006	0.178952	0.656310	1.515006	0.124490	0.656310	1.247652	0.101147	0.550443	1.158534	0.062240	0.418123	1.069416	0.778038	3.053511	7.930362	0.000000	0.000000	28.062136	-2.800317	-3.494114	17.388083	-2.720854	86.943957	34.062643	73.667165	-6.629360	-0.534016	15.477048	-4.441275	76.991493	29.749428	48.154749	-3.615003	-10.413844
0.033333	4.894516	-5.904142	82.949342	0.326768	1.040081	0.364589	0.294497	-1.070782	0.972771	7.251319	0.126559	34.146610	7.819140	0.000000	-2.066133	0.332949	4.326322	2.511338	0.043831	30.216550	-16.132719	0.000000	0.119714	0.261449	1.283291	0.222322	0.347727	1.363497	0.196679	0.635687	1.363497	0.136822	0.635687	1.122880	0.111167	0.533147	1.042674	0.068405	0.404985	0.962468	0.855108	2.957565	7.137280	0.000000	0.000000	28.087450	-2.943741	-3.451668	17.059353	-2.937335	85.729364	34.659551	72.208087	-5.895006	-0.428639	15.495391	-4.790536	76.653018	30.310724	47.605164	-3.161163	-11.431348
0.050000	4.762645	-6.028618	83.677932	0.325630	1.039471	0.365379	0.371533	-1.299940	-0.149756	7.266625	0.126827	34.478506	8.564118	0.000000	-1.637726	0.449314	4.697263	2.841609	0.049595	30.511038	-16.009387	0.000000	0.129161	0.250779	1.159890	0.239866	0.333536	1.232383	0.212199	0.609745	1.232383	0.147619	0.609745	1.014904	0.119939	0.511389	0.942410	0.073803	0.388457	0.869917	0.922587	2.836865	6.450959	0.000000	0.000000	28.108064	-3.051162	-3.413714	16.760087	-3.128898	84.591564	35.170819	71.374178	-5.358086	-0.395307	15.527157	-5.094446	76.414455	30.787342	47.139069	-2.788899	-12.296785
0.066667	4.625831	-6.131624	84.312995	0.324652	1.038989	0.366093	0.438185	-1.510614	-1.012645	7.273151	0.126940	34.724233	9.045235	0.000000	-1.264140	0.577040	5.052414	3.148681	0.054955	30.767150	-15.895992	0.000000	0.137386	0.238311	1.054253	0.255139	0.316954	1.120144	0.225711	0.579429	1.120144	0.157018	0.579429	0.922472	0.127576	0.485964	0.856581	0.078502	0.369144	0.790690	0.981332	2.695821	5.863442	0.000000	0.000000	28.124354	-3.124444	-3.376531	16.492436	-3.295867	83.540304	35.601177	71.096294	-5.006448	-0.426195	15.570562	-5.356135	76.265815	31.185573	46.746991	-2.490542	-13.022009
0.083333	4.486163	-6.215011	84.860674	0.323823	1.038624	0.366735	0.495677	-1.703307	-1.647099	7.273064	0.126939	34.894251	9.298213	0.000000	-0.941555	0.713271	5.390819	3.432732	0.059912	30.987300	-15.792910	0.000000	0.144507	0.224434	0.964951	0.268364	0.298497	1.025261	0.237411	0.545688	1.025261	0.165157	0.545688	0.844332	0.134189	0.457666	0.784023	0.082571	0.347648	0.723713	1.032199	2.538841	5.366769	0.000000	0.000000	28.136697	-3.165451	-3.336396	16.258546	-3.438561	82.585329	35.955357	71.305291	-4.827941	-0.513477	15.623820	-5.578733	76.197108	31.511708	46.419453	-2.258427	-13.618875
